<svg height="512pt" viewBox="0 -40 512 511" width="512pt" xmlns="http://www.w3.org/2000/svg"><path d="m7.546875 8.046875h496.90625v64.117187h-496.90625zm0 0" fill="#cdd2e1"/><path d="m7.546875 72.164062h496.90625v352.644532h-496.90625zm0 0" fill="#cbf7f7"/><path d="m288.058594 248.484375c0 61.972656-50.234375 112.207031-112.207032 112.207031-61.96875 0-112.203124-50.234375-112.203124-112.207031 0-61.96875 50.234374-112.203125 112.203124-112.203125 61.972657 0 112.207032 50.234375 112.207032 112.203125zm0 0" fill="#ffee6e"/><path d="m480.410156 72.164062h24.042969v352.644532h-24.042969zm0 0" fill="#64e1dc"/><path d="m231.957031 288.558594s0 32.058594-24.046875 32.058594c-24.042968 0-40.070312 0-64.117187 0-24.042969 0-24.042969-32.058594-24.042969-32.058594 0-21.71875 12.261719-40.472656 30.296875-49.851563l25.804687 25.808594 25.808594-25.808594c18.035156 9.378907 30.296875 28.132813 30.296875 49.851563zm0 0" fill="#ff636e"/><path d="m175.851562 232.457031c9.296876 0 18.113282 2.242188 25.808594 6.25l-25.808594 25.808594-25.804687-25.808594c7.691406-4.007812 16.507813-6.25 25.804687-6.25zm0 0" fill="#f2f6fc"/><path d="m175.851562 168.339844c17.714844 0 32.058594 14.34375 32.058594 32.058594 0 17.710937-14.34375 32.058593-32.058594 32.058593-17.710937 0-32.058593-14.347656-32.058593-32.058593 0-17.714844 14.347656-32.058594 32.058593-32.058594zm0 0" fill="#ffbeaa"/><path d="m215.464844 248.949219c-4.054688-4.054688-8.660156-7.566407-13.804688-10.242188l-25.808594 25.808594-25.761718-25.761719-.136719.011719c-5.109375 2.667969-9.683594 6.152344-13.710937 10.183594l39.609374 39.609375zm0 0" fill="#f03049"/><path d="m47.148438 144.292969h-15.089844v-47.617188h39.605468v15.089844h-24.515624zm0 0" fill="#fff"/><path d="m456.835938 376.71875h15.089843v16.03125h-15.089843zm0 0" fill="#fff"/><path d="m424.777344 376.71875h15.089844v16.03125h-15.089844zm0 0" fill="#fff"/><g fill="#231f20"><path d="m159.824219.5v15.089844h337.085937v49.027344h-481.820312v-49.027344h120.691406v-15.089844h-135.78125v431.851562h360.191406v-15.089843h-345.101562v-337.554688h481.820312v337.554688h-112.675781v15.089843h127.765625v-431.851562zm0 0"/><path d="m31.589844 32.558594h16.027344v15.089844h-16.027344zm0 0"/><path d="m63.648438 32.558594h16.027343v15.089844h-16.027343zm0 0"/><path d="m95.707031 32.558594h384.703125v15.089844h-384.703125zm0 0"/><path d="m112.207031 288.558594c0 13.699218 6.601563 39.605468 31.585938 39.605468h64.117187c24.988282 0 31.589844-25.90625 31.589844-39.605468 0-25.910156-15.570312-48.238282-37.839844-58.160156 8.4375-7.265626 13.796875-18.015626 13.796875-30 0-21.839844-17.765625-39.605469-39.605469-39.605469-21.835937 0-39.601562 17.765625-39.601562 39.605469 0 11.980468 5.359375 22.734374 13.796875 30-22.269531 9.921874-37.839844 32.25-37.839844 58.160156zm63.644531-48.558594c4.238282 0 8.351563.550781 12.269532 1.574219l-12.269532 12.269531-12.265624-12.269531c3.917968-1.023438 8.027343-1.574219 12.265624-1.574219zm-24.511718-39.601562c0-13.519532 10.996094-24.515626 24.511718-24.515626 13.519532 0 24.515626 10.996094 24.515626 24.515626 0 13.515624-10.996094 24.511718-24.515626 24.511718-13.515624 0-24.511718-10.996094-24.511718-24.511718zm-2.464844 47.808593 26.976562 26.976563 26.976563-26.976563c13.003906 8.722657 21.582031 23.550781 21.582031 40.351563 0 .066406-.070312 6.828125-2.527344 13.378906-3.742187 9.980469-9.765624 11.132812-13.972656 11.132812h-64.117187c-4.148438 0-10.101563-1.121093-13.859375-10.835937-2.566406-6.636719-2.636719-13.628906-2.636719-13.675781 0-16.800782 8.578125-31.628906 21.578125-40.351563zm0 0"/><path d="m274.132812 316.921875c14.046876-20.136719 21.46875-43.800781 21.46875-68.4375 0-66.03125-53.71875-119.75-119.75-119.75s-119.75 53.71875-119.75 119.75 53.722657 119.753906 119.75 119.753906c31.53125 0 61.292969-12.152343 83.808594-34.214843l-10.5625-10.777344c-19.675781 19.28125-45.6875 29.898437-73.246094 29.898437-57.707031 0-104.660156-46.949219-104.660156-104.660156 0-57.707031 46.953125-104.660156 104.660156-104.660156 57.710938 0 104.664063 46.953125 104.664063 104.660156 0 21.53125-6.488281 42.210937-18.757813 59.804687zm0 0"/><path d="m304.089844 321.085938h168.304687v15.089843h-168.304687zm0 0"/><path d="m320.117188 281.015625h152.277343v15.089844h-152.277343zm0 0"/><path d="m320.117188 240.941406h152.277343v15.089844h-152.277343zm0 0"/><path d="m320.117188 200.867188h152.277343v15.089843h-152.277343zm0 0"/><path d="m368.207031 160.792969h104.1875v15.089843h-104.1875zm0 0"/><path d="m440.335938 128.734375h32.058593v15.089844h-32.058593zm0 0"/></g></svg>