<svg height="499pt" viewBox="0 -1 499.584 499" width="499pt" xmlns="http://www.w3.org/2000/svg"><path d="m155.574219 338.085938-43.574219-21.792969v-54.113281l40-20 44.425781 22.207031 7.160157-14.3125-43.585938-21.78125v-54.113281l40-20 44.425781 22.207031 7.160157-14.3125-43.585938-21.78125v-64l-56-28-48 24-48-24-56 28v73.886719l48 24v54.113281l-48 24v73.886719l48 24v59.054687h16v-59.054687l40-20 44.425781 22.207031zm-87.148438-229.914063-12.425781-6.214844-12.425781 6.207031-7.160157-14.3125 19.585938-9.785156 19.574219 9.792969zm11.574219 110.238281v-29.398437h16v19.503906l8 4 12.425781-6.207031 7.160157 14.3125-19.585938 9.789062zm0 0"/><path d="m352 185.234375h16v-59.054687l40-20 44.425781 22.214843 7.148438-14.308593-43.574219-21.792969v-64l-56-28-56 28v73.886719l48 24zm0 0"/><path d="m448 298.179688 44.425781 22.207031 7.160157-14.3125-43.585938-21.78125v-64l-48-24v-59.058594h-16v59.058594l-40 20-44.425781-22.207031-7.160157 14.308593 43.585938 21.785157v54.113281l-40 20-40-20v-59.058594h-16v59.058594l-40 20-44.425781-22.207031-7.160157 14.308593 43.585938 21.785157v54.113281l-40 20-44.425781-22.207031-7.160157 14.308593 43.585938 21.785157v54.113281l-43.574219 21.792969 7.160157 14.308593 44.414062-22.214843 48 24 48-24 44.425781 22.207031 7.160157-14.3125-43.585938-21.78125v-54.113281l40-20 40 20v59.054687h16v-59.054687l40-20 44.425781 22.207031 7.160157-14.3125-43.585938-21.78125v-54.113281zm-243.574219 162.441406-20.425781-10.210938v-29.398437h16v19.503906l11.574219 5.792969zm51.574219-86.210938-19.574219-9.789062 7.160157-14.3125 12.414062 6.207031 12.425781-6.207031 7.160157 14.3125zm120-16.941406h-16v-19.503906l-8-4-12.425781 6.207031-7.160157-14.3125 19.585938-9.792969 24 12zm0 0"/></svg>