<svg height="511pt" viewBox="0 -1 511.99925 511" width="511pt" xmlns="http://www.w3.org/2000/svg"><path d="m257.605469 256.722656 44.222656.628906h.214844c6.074219 0 11.558593-3.683593 13.84375-9.328124l14.558593-35.90625c2.3125-5.710938.886719-12.253907-3.597656-16.484376l-32.179687-30.339843 31.714843-30.828125c4.417969-4.296875 5.746094-10.863282 3.34375-16.535156l-15.09375-35.683594c-2.402343-5.675782-8.058593-9.292969-14.199218-9.113282l-44.210938 1.300782.628906-44.222656c.085938-6.164063-3.617187-11.746094-9.328124-14.0625l-35.902344-14.554688c-5.710938-2.3125-12.257813-.886719-16.488282 3.597656l-30.339843 32.179688-30.828125-31.714844c-4.296875-4.417969-10.863282-5.7460938-16.535156-3.347656l-35.683594 15.097656c-5.671875 2.402344-9.292969 8.039062-9.113282 14.199219l1.300782 44.210937-44.222656-.628906c-6.203126-.085938-11.746094 3.617188-14.058594 9.328125l-14.558594 35.902344c-2.3125 5.710937-.886719 12.257812 3.597656 16.488281l32.179688 30.339844-31.714844 30.828125c-4.417969 4.296875-5.746094 10.863281-3.347656 16.535156l15.097656 35.683594c2.402344 5.671875 8.050781 9.308593 14.199219 9.113281l44.210937-1.300781-.628906 44.222656c-.085938 6.160156 3.617188 11.746094 9.328125 14.058594l35.90625 14.558593c1.820313.734376 3.722656 1.09375 5.609375 1.09375 4.035156 0 7.996094-1.636718 10.875-4.691406l30.34375-32.179687 30.824219 31.714843c4.296875 4.417969 10.863281 5.746094 16.539062 3.34375l35.679688-15.09375c5.675781-2.402343 9.292969-8.042968 9.113281-14.203124zm-6.53125-29.980468c-4.363281-.0625-8.542969 1.792968-11.429688 5.070312-2.25 2.558594-4.699219 5.054688-7.277343 7.421875-3.199219 2.933594-4.960938 7.113281-4.835938 11.449219l1.203125 40.910156-16.855469 7.132812-28.523437-29.347656c-3.023438-3.113281-7.25-4.757812-11.582031-4.503906-3.492188.203125-6.992188.222656-10.398438.058594-4.359375-.214844-8.601562 1.496094-11.597656 4.671875l-28.101563 29.804687-16.960937-6.875.589844-41.433594c.0625-4.308593-1.738282-8.433593-4.941407-11.316406-2.40625-2.164062-4.730469-4.480468-6.914062-6.882812-2.933594-3.230469-7.136719-5.011719-11.496094-4.886719l-41.507813 1.21875-7.128906-16.855469 30.242188-29.398437c3.070312-2.980469 4.710937-7.136719 4.511718-11.414063-.136718-2.917968-.140624-5.898437-.011718-8.863281.191406-4.34375-1.511719-8.550781-4.675782-11.53125l-30.753906-28.996094 6.875-16.960937 42.738282.605468c4.292968.066407 8.386718-1.71875 11.269531-4.890624 1.859375-2.046876 3.808593-4.019532 5.785156-5.855469 3.15625-2.933594 4.890625-7.082031 4.765625-11.386719l-1.257812-42.742188 16.855468-7.132812 29.804688 30.664062c3.003906 3.089844 7.183594 4.734376 11.492187 4.507813 2.691407-.140625 5.457031-.164063 8.230469-.074219 4.285156.148438 8.417969-1.566406 11.355469-4.683594l29.320312-31.097656 16.960938 6.875-.597657 42.265625c-.0625 4.34375 1.769532 8.5 5.019532 11.382813 2.210937 1.964844 4.351562 4.042968 6.355468 6.183594 2.929688 3.121093 7.035157 4.824218 11.335938 4.710937l42.15625-1.242187 7.132812 16.855468-29.777343 28.941406c-3.128907 3.042969-4.769531 7.300782-4.496094 11.65625.203125 3.230469.246094 6.511719.128906 9.757813-.160156 4.300781 1.546875 8.464844 4.679688 11.421875l30.148437 28.429688-6.875 16.957031zm0 0"/><path d="m188.511719 111.558594c-14.796875-5.996094-31.042969-5.875-45.742188.347656-14.703125 6.21875-26.101562 17.792969-32.101562 32.589844-5.996094 14.792968-5.875 31.039062.347656 45.742187 9.632813 22.773438 31.820313 36.480469 55.121094 36.476563 7.753906 0 15.632812-1.515625 23.207031-4.722656 14.703125-6.222657 26.105469-17.792969 32.101562-32.589844 5.996094-14.792969 5.875-31.039063-.34375-45.742188-6.222656-14.703125-17.796874-26.101562-32.589843-32.101562zm5.238281 66.617187c-2.996094 7.394531-8.699219 13.183594-16.050781 16.292969-15.171875 6.421875-32.742188-.703125-39.164063-15.875-3.109375-7.351562-3.171875-15.476562-.171875-22.871094 3-7.398437 8.699219-13.183594 16.050781-16.296875 7.347657-3.109375 15.472657-3.171875 22.871094-.171875 7.394532 3 13.183594 8.699219 16.292969 16.050782 3.109375 7.351562 3.171875 15.472656.171875 22.871093zm0 0"/><path d="m502.472656 354.832031-25.980468-10.101562 11.226562-25.515625c2.480469-5.640625 1.246094-12.222656-3.113281-16.582032l-19.90625-19.90625c-4.355469-4.355468-10.941407-5.59375-16.582031-3.109374l-25.511719 11.226562-10.105469-25.980469c-2.234375-5.742187-7.765625-9.523437-13.925781-9.523437h-28.15625c-6.164063 0-11.691407 3.78125-13.925781 9.527344l-10.101563 25.976562-25.515625-11.222656c-5.636719-2.484375-12.222656-1.246094-16.578125 3.109375l-19.910156 19.90625c-4.355469 4.359375-5.59375 10.945312-3.109375 16.585937l11.226562 25.511719-25.980468 10.105469c-5.742188 2.234375-9.527344 7.761718-9.527344 13.925781v28.152344c0 6.164062 3.785156 11.695312 9.527344 13.925781l25.980468 10.105469-11.226562 25.511719c-2.480469 5.640624-1.246094 12.226562 3.113281 16.582031l19.90625 19.910156c4.355469 4.355469 10.941406 5.589844 16.582031 3.109375l25.515625-11.226562 10.105469 25.976562c2.230469 5.746094 7.761719 9.527344 13.921875 9.527344h28.15625c6.164063 0 11.691406-3.78125 13.925781-9.527344l10.101563-25.980469 25.515625 11.226563c5.644531 2.484375 12.226562 1.246094 16.582031-3.113282l19.90625-19.90625c4.359375-4.355468 5.59375-10.941406 3.113281-16.582031l-11.230468-25.515625 25.980468-10.105468c5.742188-2.230469 9.527344-7.761719 9.527344-13.921876v-28.15625c0-6.160156-3.78125-11.691406-9.527344-13.925781zm-20.355468 31.859375-25.515626 9.925782c-4.070312 1.582031-7.242187 4.863281-8.6875 8.980468-.734374 2.101563-1.582031 4.183594-2.519531 6.1875-1.828125 3.902344-1.878906 8.402344-.144531 12.347656l11.003906 25.003907-5.453125 5.453125-24.691406-10.863282c-4-1.757812-8.570313-1.679687-12.503906.21875-2.097657 1.011719-4.304688 1.929688-6.566407 2.738282-4.089843 1.453125-7.34375 4.613281-8.914062 8.660156l-9.769531 25.113281h-7.710938l-9.769531-25.113281c-1.570312-4.042969-4.824219-7.203125-8.910156-8.660156-2.261719-.804688-4.472656-1.726563-6.574219-2.738282-3.9375-1.894531-8.503906-1.972656-12.5-.214843l-24.691406 10.863281-5.453125-5.453125 11-25.003906c1.734375-3.945313 1.683594-8.449219-.140625-12.351563-.9375-2-1.789063-4.082031-2.523438-6.183594-1.445312-4.117187-4.617187-7.398437-8.6875-8.980468l-25.515625-9.925782v-7.710937l25.960938-10.097656c3.988281-1.550781 7.121094-4.738281 8.601562-8.753907.691406-1.875 1.484375-3.757812 2.359375-5.59375 1.867188-3.925781 1.9375-8.464843.1875-12.441406l-11.246093-25.558594 5.453124-5.453124 25.875 11.382812c3.921876 1.726562 8.394532 1.683594 12.285157-.113281 1.71875-.796875 3.472656-1.519531 5.207031-2.148438 4.050781-1.46875 7.265625-4.613281 8.828125-8.628906l10.246094-26.355469h7.714843l10.25 26.355469c1.5625 4.011719 4.777344 7.15625 8.824219 8.628906 1.738281.628907 3.492188 1.351563 5.214844 2.148438 3.890625 1.796875 8.363281 1.835937 12.28125.113281l25.875-11.386719 5.453125 5.457031-11.246094 25.554688c-1.746094 3.976562-1.679687 8.519531.1875 12.441406.871094 1.828125 1.664063 3.710938 2.363282 5.601563 1.480468 4.011719 4.613281 7.195312 8.601562 8.746093l25.960938 10.097657zm0 0"/><path d="m384.5 335.992188c-26.128906 0-47.386719 21.253906-47.386719 47.382812s21.257813 47.386719 47.386719 47.386719c26.125 0 47.382812-21.257813 47.382812-47.386719 0-26.125-21.257812-47.382812-47.382812-47.382812zm0 64.886718c-9.652344 0-17.503906-7.851562-17.503906-17.503906 0-9.648438 7.851562-17.5 17.503906-17.5 9.648438 0 17.5 7.851562 17.5 17.5 0 9.652344-7.851562 17.503906-17.5 17.503906zm0 0"/></svg>