<svg xmlns="http://www.w3.org/2000/svg" xmlns:xlink="http://www.w3.org/1999/xlink" xmlns:fi="http://pattern.flaticon.com/" x="0" y="0" width="700" height="350" viewBox="0 0 700 350"><rect x="0px" y="0px" width="100%" height="100%" opacity="1" fill="#e0e0e0"/><defs><g transform="matrix(0.1377460664496841 -0.043045646427424776 0.043045646427424776 0.1377460664496841 140.71732150346014 235.75669247430162)" id="L1_0"><path d="M343.495,285.792c14.366-9.953,27.601-19.937,39.64-29.792c-12.039-9.855-25.274-19.839-39.64-29.792   C343.827,235.848,344,245.778,344,256S343.827,276.151,343.495,285.792z" fill="none"/><path d="M209.617,424.041c0.199,0.01,0.396,0.03,0.595,0.044c0.333,0.023,0.667,0.043,0.998,0.076   c0.251,0.025,0.499,0.061,0.748,0.092c0.272,0.034,0.546,0.063,0.817,0.104c0.281,0.042,0.557,0.095,0.835,0.144   c0.235,0.042,0.47,0.079,0.703,0.126c0.301,0.06,0.599,0.131,0.897,0.2c0.203,0.047,0.408,0.09,0.61,0.141   c0.321,0.081,0.637,0.171,0.954,0.261c0.174,0.049,0.348,0.095,0.521,0.148c0.336,0.102,0.667,0.213,0.999,0.326   c0.148,0.05,0.297,0.098,0.443,0.15c0.35,0.125,0.696,0.259,1.041,0.395c0.121,0.048,0.244,0.094,0.364,0.144   c0.362,0.148,0.719,0.306,1.074,0.467c0.099,0.045,0.198,0.088,0.297,0.134c0.371,0.173,0.737,0.355,1.101,0.542   c0.077,0.04,0.154,0.078,0.231,0.118c0.379,0.199,0.752,0.406,1.122,0.619c0.057,0.033,0.115,0.065,0.171,0.099   c0.384,0.224,0.761,0.457,1.135,0.697c0.04,0.026,0.08,0.051,0.119,0.076c0.385,0.25,0.764,0.508,1.137,0.773   c0.026,0.019,0.052,0.037,0.079,0.056c0.383,0.274,0.76,0.557,1.13,0.848c0.014,0.011,0.028,0.022,0.043,0.034   c0.379,0.299,0.751,0.605,1.116,0.92c0.005,0.004,0.01,0.009,0.015,0.013C235.698,437.655,240,446.322,240,456   c0,8.855-3.598,16.87-9.411,22.664C238.874,489.933,247.556,496,256,496c22.539,0,46.779-43.186,60.597-113.392   c-18.895-7.104-39.146-15.954-60.597-26.678c-21.452,10.724-41.702,19.574-60.598,26.678c2.98,15.139,6.443,29.022,10.27,41.486   c0.77-0.055,1.544-0.093,2.327-0.093C208.542,424,209.081,424.014,209.617,424.041z" fill="none"/><path d="M300,179.79c8.853,5.111,17.365,10.226,25.548,15.333c-1.437-17.417-3.466-33.872-5.981-49.225   c-14.553,5.498-29.818,11.969-45.621,19.433C282.461,169.864,291.147,174.679,300,179.79z" fill="none"/><path d="M256,337.874c11.775-5.976,23.795-12.474,36-19.521c12.204-7.046,23.842-14.207,34.905-21.417   C327.617,283.751,328,270.092,328,256c0-14.093-0.383-27.751-1.094-40.937c-11.063-7.21-22.701-14.37-34.905-21.417   c-12.205-7.046-24.225-13.544-36-19.521c-11.776,5.977-23.796,12.475-36,19.521c-12.205,7.046-23.842,14.207-34.906,21.417   C184.382,228.249,184,241.907,184,256c0,14.093,0.382,27.751,1.094,40.937c11.063,7.21,22.701,14.37,34.906,21.417   C232.204,325.4,244.224,331.898,256,337.874z M256,208c26.51,0,48,21.49,48,48s-21.49,48-48,48c-26.51,0-48-21.49-48-48   S229.49,208,256,208z" fill="none"/><path d="M392,152c-5.908,0-11.438-1.608-16.188-4.4c-0.005-0.003-0.01-0.006-0.016-0.009   c-0.383-0.225-0.76-0.459-1.132-0.7c-0.041-0.026-0.082-0.052-0.123-0.079c-0.349-0.228-0.693-0.463-1.032-0.704   c-0.061-0.043-0.122-0.086-0.182-0.129c-0.323-0.233-0.642-0.471-0.956-0.716c-0.073-0.056-0.145-0.113-0.217-0.17   c-0.302-0.24-0.601-0.484-0.894-0.734c-0.078-0.066-0.155-0.134-0.232-0.201c-0.286-0.248-0.568-0.5-0.845-0.758   c-0.078-0.073-0.154-0.147-0.232-0.221c-0.273-0.259-0.542-0.521-0.806-0.79c-0.073-0.075-0.144-0.152-0.217-0.227   c-0.264-0.274-0.525-0.551-0.779-0.834c-0.057-0.063-0.111-0.13-0.168-0.194c-0.266-0.302-0.529-0.605-0.783-0.916   c-0.002-0.003-0.005-0.006-0.007-0.009c-0.823-1.009-1.581-2.071-2.278-3.176c-0.069-0.109-0.141-0.216-0.209-0.326   c-0.156-0.254-0.302-0.513-0.451-0.771c-0.1-0.174-0.203-0.347-0.3-0.523c-0.131-0.238-0.255-0.481-0.381-0.723   c-0.105-0.203-0.211-0.405-0.312-0.61c-0.114-0.232-0.221-0.466-0.33-0.701c-0.102-0.222-0.205-0.443-0.302-0.668   c-0.1-0.23-0.194-0.462-0.289-0.694c-0.014-0.034-0.028-0.067-0.042-0.101c-8.603,2.342-17.604,5.106-26.953,8.3   c3.295,19.916,5.756,41.878,7.195,65.818c20.013,13.216,37.803,26.328,53.403,39.14c53.891-47.07,79.171-89.655,67.902-109.175   c-5.363-9.289-19.394-14.019-39.919-13.937C422.862,138.774,408.979,152,392,152z" fill="none"/><path d="M65.617,168.041c0.2,0.01,0.396,0.03,0.595,0.044c0.333,0.023,0.667,0.043,0.997,0.076   c0.251,0.025,0.499,0.061,0.748,0.092c0.272,0.034,0.546,0.063,0.817,0.104c0.28,0.042,0.557,0.095,0.835,0.144   c0.234,0.042,0.47,0.079,0.703,0.126c0.301,0.06,0.599,0.131,0.897,0.2c0.203,0.047,0.408,0.09,0.61,0.141   c0.32,0.08,0.635,0.171,0.951,0.26c0.175,0.05,0.351,0.096,0.525,0.149c0.336,0.102,0.667,0.213,0.998,0.326   c0.147,0.05,0.296,0.098,0.443,0.15c0.349,0.124,0.693,0.258,1.037,0.394c0.123,0.049,0.248,0.095,0.37,0.146   c0.362,0.149,0.719,0.306,1.073,0.467c0.098,0.045,0.197,0.088,0.294,0.133c0.371,0.173,0.737,0.355,1.1,0.542   c0.078,0.04,0.156,0.079,0.233,0.12c0.377,0.198,0.75,0.405,1.118,0.617c0.059,0.034,0.117,0.067,0.176,0.101   c0.382,0.224,0.759,0.456,1.131,0.695c0.041,0.026,0.082,0.052,0.123,0.079c0.384,0.249,0.762,0.507,1.134,0.772   c0.027,0.019,0.053,0.038,0.08,0.057c0.383,0.274,0.759,0.556,1.129,0.847c0.015,0.012,0.03,0.023,0.044,0.035   c0.379,0.298,0.75,0.604,1.115,0.919c0.006,0.005,0.011,0.01,0.017,0.015c0.371,0.321,0.734,0.649,1.09,0.986l0,0l0,0   c6.155,5.832,10,14.077,10,23.226c0,7.434-2.542,14.27-6.795,19.703c7.944,8.261,16.909,16.79,26.85,25.473   c15.6-12.812,33.39-25.924,53.403-39.14c1.439-23.939,3.899-45.902,7.195-65.818C108.944,117.081,59.424,116.48,48.154,136   c-4.611,7.987-3.093,19.841,3.989,34.279C55.811,168.814,59.809,168,64,168C64.542,168,65.081,168.014,65.617,168.041z" fill="none"/><path d="M316.597,129.392C302.779,59.186,278.539,16,256,16c-22.54,0-46.779,43.186-60.598,113.392   c18.895,7.104,39.146,15.954,60.598,26.678C277.452,145.347,297.702,136.496,316.597,129.392z" fill="none"/><path d="M168,256c0-10.222,0.173-20.151,0.505-29.792c-14.365,9.953-27.601,19.937-39.64,29.792   c12.039,9.855,25.274,19.839,39.64,29.792C168.173,276.151,168,266.222,168,256z" fill="none"/><path d="M238.053,165.331c-15.802-7.464-31.067-13.935-45.621-19.433c-2.515,15.353-4.544,31.808-5.981,49.225   c8.183-5.107,16.696-10.222,25.548-15.333C220.853,174.679,229.538,169.864,238.053,165.331z" fill="none"/><path d="M395.944,266.825c-15.6,12.812-33.39,25.924-53.403,39.14c-1.439,23.939-3.899,45.902-7.195,65.818   c67.709,23.136,117.229,23.737,128.499,4.217C475.116,356.48,449.835,313.895,395.944,266.825z" fill="none"/><path d="M186.452,316.877c1.437,17.417,3.466,33.872,5.981,49.225c14.553-5.498,29.818-11.969,45.62-19.433   c-8.514-4.533-17.2-9.348-26.053-14.459C203.147,327.099,194.635,321.984,186.452,316.877z" fill="none"/><path d="M300,332.21c-8.853,5.111-17.539,9.926-26.053,14.459c15.802,7.464,31.067,13.935,45.621,19.433   c2.515-15.353,4.544-31.808,5.981-49.225C317.365,321.984,308.853,327.099,300,332.21z" fill="none"/><path d="M116.056,266.825C62.165,313.895,36.884,356.48,48.154,376c11.27,19.52,60.79,18.919,128.499-4.217   c-3.296-19.916-5.756-41.878-7.195-65.818C149.445,292.749,131.655,279.637,116.056,266.825z" fill="none"/><path d="M408.689,256c62.099-54.576,83.729-102.512,69.014-128c-8.123-14.07-27.717-21.96-56.806-21.759   C422.884,110.409,424,115.074,424,120c0,0.694-0.03,1.38-0.073,2.063c20.525-0.083,34.556,4.647,39.919,13.937   c11.27,19.52-14.011,62.105-67.902,109.175c-15.6-12.812-33.39-25.924-53.403-39.14c-1.439-23.939-3.899-45.902-7.195-65.818   c9.35-3.195,18.35-5.959,26.953-8.3c-0.081-0.202-0.16-0.404-0.237-0.608c-0.087-0.229-0.17-0.46-0.251-0.691   c-0.087-0.247-0.171-0.495-0.252-0.745c-0.074-0.229-0.146-0.458-0.215-0.689c-0.077-0.259-0.151-0.519-0.221-0.78   c-0.062-0.228-0.123-0.455-0.18-0.685c-0.067-0.271-0.129-0.545-0.189-0.819c-0.05-0.225-0.1-0.449-0.144-0.675   c-0.057-0.286-0.105-0.574-0.154-0.863c-0.037-0.219-0.076-0.438-0.109-0.658c-0.045-0.306-0.081-0.615-0.117-0.924   c-0.024-0.207-0.053-0.413-0.073-0.622c-0.034-0.345-0.057-0.694-0.079-1.042c-0.011-0.176-0.028-0.349-0.037-0.526   c-0.026-0.526-0.04-1.056-0.04-1.589c0-1.585,0.12-3.142,0.342-4.665c-8.917,2.336-18.254,5.136-27.998,8.432   C316.13,42.7,285.43,0,256,0c-29.431,0-60.13,42.7-76.344,123.768C101.342,97.276,49.013,102.512,34.297,128   c-7.198,12.468-5.687,30.312,4.989,51.672c3.398-4.126,7.813-7.379,12.857-9.393c-7.082-14.437-8.6-26.292-3.989-34.279   c11.27-19.52,60.79-18.919,128.499,4.217c-3.296,19.916-5.756,41.878-7.195,65.818c-20.013,13.216-37.803,26.328-53.403,39.14   c-9.941-8.683-18.907-17.212-26.85-25.473c-3.442,4.397-8.005,7.868-13.263,9.985c8.041,8.544,17.159,17.338,27.369,26.312   c-62.099,54.576-83.729,102.512-69.014,128c14.715,25.488,67.044,30.724,145.358,4.232c3.016,15.081,6.532,28.838,10.45,41.235   c4.504-3.043,9.827-4.961,15.567-5.374c-3.828-12.463-7.291-26.347-10.27-41.486c18.895-7.104,39.146-15.954,60.598-26.678   c21.452,10.724,41.702,19.574,60.597,26.678C302.779,452.814,278.539,496,256,496c-8.444,0-17.126-6.066-25.411-17.336   c-3.711,3.699-8.328,6.486-13.486,8.015C229.38,503.423,242.817,512,256,512c29.43,0,60.13-42.7,76.344-123.768   c78.313,26.491,130.643,21.255,145.358-4.232C492.418,358.512,470.788,310.576,408.689,256z M383.135,256   c-12.039,9.855-25.274,19.839-39.64,29.792C343.827,276.151,344,266.222,344,256s-0.173-20.151-0.505-29.792   C357.861,236.161,371.096,246.145,383.135,256z M184,256c0-14.093,0.382-27.751,1.094-40.937   c11.063-7.21,22.701-14.37,34.906-21.417c12.204-7.046,24.224-13.544,36-19.521c11.775,5.977,23.795,12.475,36,19.521   c12.204,7.046,23.842,14.207,34.905,21.417C327.617,228.249,328,241.907,328,256c0,14.093-0.383,27.751-1.094,40.937   c-11.063,7.21-22.701,14.37-34.905,21.417c-12.205,7.046-24.225,13.544-36,19.521c-11.776-5.976-23.796-12.474-36-19.521   c-12.205-7.046-23.842-14.207-34.906-21.417C184.382,283.751,184,270.092,184,256z M325.548,195.123   c-8.183-5.107-16.696-10.222-25.548-15.333c-8.853-5.111-17.539-9.926-26.053-14.459c15.802-7.464,31.067-13.935,45.621-19.433   C322.083,161.251,324.111,177.705,325.548,195.123z M256,16c22.539,0,46.779,43.186,60.597,113.392   c-18.895,7.104-39.146,15.954-60.597,26.678c-21.452-10.724-41.702-19.574-60.598-26.678C209.221,59.186,233.46,16,256,16z    M192.432,145.898c14.553,5.498,29.818,11.969,45.621,19.433c-8.515,4.533-17.2,9.348-26.053,14.459   c-8.853,5.111-17.365,10.226-25.548,15.333C187.888,177.705,189.917,161.251,192.432,145.898z M168.505,226.208   C168.173,235.848,168,245.778,168,256s0.173,20.151,0.505,29.792c-14.365-9.953-27.601-19.937-39.64-29.792   C140.903,246.145,154.139,236.161,168.505,226.208z M48.154,376c-11.27-19.52,14.011-62.105,67.902-109.175   c15.6,12.812,33.39,25.924,53.403,39.14c1.439,23.939,3.899,45.902,7.195,65.818C108.944,394.918,59.424,395.519,48.154,376z    M192.432,366.102c-2.515-15.353-4.544-31.808-5.981-49.225c8.183,5.107,16.696,10.222,25.548,15.333   c8.853,5.111,17.538,9.926,26.053,14.459C222.251,354.133,206.986,360.604,192.432,366.102z M273.947,346.669   c8.515-4.533,17.2-9.348,26.053-14.459c8.853-5.111,17.365-10.226,25.548-15.333c-1.437,17.417-3.466,33.872-5.981,49.225   C305.014,360.604,289.749,354.133,273.947,346.669z M463.846,376c-11.27,19.52-60.79,18.919-128.499-4.217   c3.296-19.916,5.756-41.878,7.195-65.818c20.013-13.216,37.803-26.328,53.403-39.14C449.835,313.895,475.116,356.48,463.846,376z" fill="#5c546a"/><circle cx="256" cy="256" r="48" fill="#ffcf00"/><path d="M240,456c0-9.678-4.302-18.345-11.091-24.213c0.371,0.321,0.735,0.65,1.091,0.987   c-1.268-0.153-2.557-0.241-3.866-0.241c-17.673,0-32,14.327-32,32c0,9.149,3.845,17.394,10,23.226   c-4.453-0.537-8.625-1.988-12.323-4.16c4.75,2.792,10.281,4.4,16.189,4.4c3.164,0,6.217-0.466,9.103-1.322   c5.158-1.528,9.775-4.316,13.486-8.015C236.402,472.87,240,464.855,240,456z" fill="#ffedb9"/><path d="M194.133,464.533c0-17.673,14.327-32,32-32c1.31,0,2.598,0.088,3.866,0.241   c-0.356-0.337-0.72-0.666-1.091-0.987c-0.005-0.004-0.01-0.009-0.015-0.013c-0.365-0.315-0.737-0.622-1.116-0.92   c-0.014-0.011-0.029-0.022-0.043-0.034c-0.37-0.291-0.747-0.573-1.13-0.848c-0.026-0.019-0.052-0.037-0.079-0.056   c-0.373-0.266-0.752-0.524-1.137-0.773c-0.04-0.026-0.08-0.051-0.119-0.076c-0.373-0.24-0.751-0.472-1.135-0.697   c-0.057-0.033-0.114-0.066-0.171-0.099c-0.37-0.214-0.743-0.42-1.122-0.619c-0.076-0.04-0.154-0.079-0.231-0.118   c-0.363-0.187-0.73-0.369-1.101-0.542c-0.098-0.046-0.198-0.089-0.297-0.134c-0.355-0.161-0.712-0.319-1.074-0.467   c-0.121-0.05-0.243-0.095-0.364-0.144c-0.344-0.137-0.69-0.271-1.041-0.395c-0.147-0.052-0.296-0.1-0.443-0.15   c-0.331-0.113-0.663-0.224-0.999-0.326c-0.172-0.052-0.347-0.098-0.521-0.148c-0.317-0.09-0.633-0.181-0.954-0.261   c-0.202-0.051-0.406-0.094-0.61-0.141c-0.298-0.069-0.596-0.14-0.897-0.2c-0.233-0.047-0.469-0.084-0.703-0.126   c-0.278-0.049-0.555-0.102-0.835-0.144c-0.27-0.041-0.544-0.07-0.817-0.104c-0.25-0.031-0.497-0.067-0.748-0.092   c-0.33-0.033-0.664-0.053-0.998-0.076c-0.198-0.014-0.395-0.034-0.595-0.044C209.081,424.014,208.542,424,208,424   c-0.784,0-1.558,0.038-2.327,0.093c-5.74,0.413-11.063,2.33-15.567,5.374C181.595,435.218,176,444.955,176,456   c0,0.533,0.014,1.062,0.04,1.589c0.009,0.176,0.026,0.35,0.037,0.525c0.023,0.349,0.045,0.697,0.079,1.042   c0.021,0.208,0.049,0.415,0.073,0.622c0.036,0.309,0.072,0.618,0.117,0.924c0.032,0.221,0.072,0.439,0.109,0.659   c0.049,0.288,0.098,0.577,0.154,0.863c0.045,0.226,0.095,0.451,0.144,0.675c0.06,0.274,0.122,0.548,0.189,0.819   c0.057,0.229,0.118,0.457,0.18,0.685c0.071,0.261,0.144,0.522,0.222,0.78c0.069,0.231,0.141,0.461,0.215,0.689   c0.081,0.25,0.165,0.498,0.252,0.745c0.082,0.232,0.164,0.462,0.251,0.691c0.09,0.238,0.184,0.473,0.279,0.708   c0.094,0.232,0.189,0.465,0.289,0.694c0.097,0.224,0.199,0.444,0.301,0.665c0.109,0.236,0.217,0.472,0.331,0.705   c0.101,0.204,0.206,0.405,0.311,0.607c0.125,0.243,0.25,0.486,0.381,0.725c0.097,0.176,0.2,0.349,0.301,0.523   c0.149,0.258,0.295,0.518,0.451,0.771c0.067,0.11,0.14,0.217,0.209,0.326c0.697,1.105,1.456,2.169,2.279,3.177   c0.002,0.003,0.004,0.005,0.006,0.008c0.255,0.313,0.519,0.617,0.786,0.92c0.055,0.063,0.108,0.127,0.164,0.189   c0.255,0.285,0.518,0.563,0.783,0.838c0.071,0.074,0.141,0.15,0.213,0.223c0.264,0.269,0.534,0.531,0.807,0.791   c0.077,0.073,0.154,0.148,0.231,0.221c0.277,0.258,0.56,0.51,0.846,0.759c0.077,0.067,0.153,0.134,0.231,0.2   c0.294,0.25,0.592,0.495,0.895,0.734c0.072,0.057,0.144,0.114,0.217,0.171c0.314,0.244,0.633,0.483,0.956,0.716   c0.06,0.043,0.12,0.086,0.181,0.128c0.34,0.241,0.684,0.477,1.034,0.705c0.04,0.026,0.08,0.051,0.12,0.077   c0.373,0.241,0.751,0.476,1.135,0.701c0.004,0.003,0.009,0.005,0.013,0.008c3.697,2.172,7.869,3.623,12.323,4.16   C197.979,481.927,194.133,473.682,194.133,464.533z" fill="#ffd586"/><path d="M410.133,96.533c-17.673,0-32,14.327-32,32c0,9.149,3.845,17.394,10,23.226   c-4.453-0.537-8.625-1.987-12.321-4.159c4.75,2.792,10.28,4.4,16.188,4.4c16.979,0,30.862-13.226,31.927-29.937   C423.97,121.38,424,120.694,424,120c0-4.926-1.115-9.591-3.104-13.759c-1.918-4.021-4.654-7.573-7.988-10.454   c0.371,0.321,0.735,0.65,1.092,0.988C412.731,96.621,411.443,96.533,410.133,96.533z" fill="#708aff"/><path d="M360.04,121.589c0.009,0.176,0.025,0.35,0.037,0.526c0.023,0.349,0.046,0.697,0.079,1.042   c0.021,0.208,0.049,0.414,0.073,0.622c0.036,0.309,0.072,0.618,0.117,0.924c0.032,0.221,0.072,0.439,0.109,0.658   c0.049,0.289,0.098,0.577,0.154,0.863c0.044,0.226,0.094,0.451,0.144,0.675c0.06,0.274,0.122,0.548,0.189,0.819   c0.057,0.229,0.118,0.457,0.18,0.685c0.071,0.261,0.144,0.522,0.221,0.78c0.069,0.231,0.141,0.461,0.215,0.689   c0.081,0.25,0.165,0.498,0.252,0.745c0.082,0.231,0.165,0.462,0.251,0.691c0.077,0.204,0.156,0.406,0.237,0.608   c0.014,0.034,0.028,0.067,0.042,0.101c0.094,0.232,0.189,0.464,0.289,0.694c0.097,0.224,0.2,0.446,0.302,0.668   c0.108,0.235,0.216,0.47,0.33,0.701c0.101,0.205,0.207,0.407,0.312,0.61c0.125,0.242,0.249,0.485,0.381,0.723   c0.097,0.176,0.2,0.349,0.3,0.523c0.149,0.258,0.295,0.518,0.451,0.771c0.068,0.11,0.14,0.217,0.209,0.326   c0.697,1.105,1.455,2.168,2.278,3.176c0.002,0.003,0.005,0.006,0.007,0.009c0.254,0.311,0.517,0.615,0.783,0.916   c0.056,0.064,0.111,0.13,0.168,0.194c0.254,0.284,0.515,0.56,0.779,0.834c0.073,0.075,0.143,0.153,0.217,0.227   c0.263,0.268,0.533,0.531,0.806,0.79c0.077,0.074,0.154,0.148,0.232,0.221c0.277,0.258,0.559,0.51,0.845,0.758   c0.077,0.067,0.154,0.135,0.232,0.201c0.293,0.25,0.592,0.494,0.894,0.734c0.072,0.057,0.145,0.114,0.217,0.17   c0.314,0.244,0.632,0.483,0.956,0.716c0.06,0.043,0.121,0.086,0.182,0.129c0.339,0.241,0.683,0.476,1.032,0.704   c0.041,0.027,0.082,0.052,0.123,0.079c0.372,0.24,0.749,0.475,1.132,0.7c0.005,0.003,0.011,0.006,0.016,0.009   c3.697,2.171,7.868,3.622,12.321,4.159c-6.155-5.832-10-14.077-10-23.226c0-17.673,14.327-32,32-32c1.31,0,2.598,0.088,3.866,0.241   c-0.356-0.338-0.72-0.667-1.092-0.988c-0.005-0.004-0.009-0.008-0.014-0.012c-0.365-0.316-0.738-0.623-1.118-0.922   c-0.013-0.01-0.027-0.021-0.04-0.032c-0.371-0.291-0.749-0.574-1.132-0.849c-0.025-0.018-0.051-0.036-0.077-0.055   c-0.373-0.266-0.752-0.524-1.137-0.774c-0.04-0.026-0.079-0.051-0.119-0.076c-0.373-0.24-0.751-0.473-1.135-0.697   c-0.056-0.033-0.114-0.065-0.17-0.098c-0.37-0.214-0.744-0.421-1.123-0.62c-0.076-0.04-0.153-0.078-0.229-0.117   c-0.364-0.187-0.73-0.369-1.102-0.542c-0.098-0.046-0.198-0.089-0.297-0.134c-0.355-0.161-0.712-0.319-1.073-0.467   c-0.121-0.05-0.244-0.096-0.365-0.144c-0.344-0.137-0.69-0.27-1.04-0.395c-0.146-0.052-0.294-0.099-0.441-0.149   c-0.332-0.113-0.664-0.224-1-0.326c-0.172-0.052-0.346-0.098-0.519-0.147c-0.317-0.09-0.634-0.181-0.955-0.262   c-0.202-0.051-0.406-0.094-0.61-0.141c-0.298-0.069-0.596-0.14-0.897-0.2c-0.233-0.047-0.469-0.084-0.703-0.126   c-0.278-0.049-0.554-0.102-0.835-0.144c-0.271-0.041-0.544-0.07-0.817-0.104c-0.249-0.031-0.497-0.067-0.748-0.092   c-0.33-0.033-0.664-0.053-0.997-0.076c-0.198-0.014-0.396-0.034-0.595-0.044C393.081,88.014,392.542,88,392,88   c-16.088,0-29.399,11.874-31.658,27.335C360.12,116.858,360,118.415,360,120C360,120.533,360.014,121.062,360.04,121.589z" fill="#3d6edd"/><path d="M89.205,219.702C93.458,214.27,96,207.434,96,200c0-9.149-3.845-17.394-10-23.226   c-1.268-0.153-2.557-0.241-3.866-0.241c-17.673,0-32,14.327-32,32c0,9.148,3.845,17.394,10,23.226   c-4.452-0.536-8.622-1.986-12.318-4.157C52.565,230.393,58.094,232,64,232c4.223,0,8.251-0.826,11.942-2.312   C81.2,227.57,85.764,224.099,89.205,219.702z" fill="#ff7400"/><path d="M50.133,208.533c0-17.673,14.327-32,32-32c1.31,0,2.598,0.088,3.866,0.241l0,0l0,0   c-0.355-0.337-0.719-0.666-1.09-0.986c-0.005-0.005-0.011-0.01-0.017-0.015c-0.364-0.314-0.736-0.621-1.115-0.919   c-0.015-0.011-0.03-0.023-0.044-0.035c-0.37-0.29-0.746-0.573-1.129-0.847c-0.027-0.019-0.053-0.038-0.08-0.057   c-0.372-0.265-0.75-0.522-1.134-0.772c-0.041-0.027-0.082-0.052-0.123-0.079c-0.372-0.239-0.749-0.471-1.131-0.695   c-0.058-0.034-0.117-0.067-0.176-0.101c-0.368-0.213-0.741-0.419-1.118-0.617c-0.077-0.041-0.156-0.08-0.233-0.12   c-0.363-0.187-0.729-0.369-1.1-0.542c-0.098-0.046-0.197-0.088-0.294-0.133c-0.355-0.161-0.712-0.318-1.073-0.467   c-0.123-0.05-0.247-0.097-0.37-0.146c-0.343-0.136-0.688-0.269-1.037-0.394c-0.146-0.052-0.295-0.1-0.443-0.15   c-0.331-0.113-0.662-0.224-0.998-0.326c-0.174-0.053-0.35-0.099-0.525-0.149c-0.316-0.09-0.631-0.18-0.951-0.26   c-0.202-0.051-0.407-0.094-0.61-0.141c-0.298-0.069-0.596-0.14-0.897-0.2c-0.233-0.047-0.469-0.084-0.703-0.126   c-0.278-0.049-0.555-0.102-0.835-0.144c-0.271-0.041-0.544-0.07-0.817-0.104c-0.25-0.031-0.497-0.067-0.748-0.092   c-0.33-0.033-0.664-0.053-0.997-0.076c-0.199-0.014-0.396-0.034-0.595-0.044C65.081,168.014,64.542,168,64,168   c-4.191,0-8.189,0.814-11.857,2.279c-5.044,2.014-9.459,5.267-12.857,9.393C34.734,185.199,32,192.28,32,200   c0,0.533,0.014,1.062,0.04,1.589c0.009,0.176,0.026,0.35,0.037,0.526c0.023,0.349,0.045,0.697,0.079,1.042   c0.02,0.208,0.049,0.414,0.073,0.622c0.037,0.309,0.072,0.618,0.118,0.924c0.032,0.221,0.072,0.439,0.109,0.659   c0.049,0.288,0.098,0.577,0.154,0.863c0.045,0.226,0.095,0.451,0.144,0.675c0.06,0.274,0.122,0.548,0.189,0.819   c0.057,0.23,0.118,0.457,0.18,0.685c0.071,0.261,0.144,0.522,0.222,0.78c0.069,0.231,0.141,0.461,0.215,0.689   c0.081,0.25,0.165,0.498,0.252,0.745c0.082,0.232,0.165,0.462,0.251,0.692c0.09,0.238,0.184,0.473,0.279,0.708   c0.094,0.232,0.189,0.464,0.289,0.694c0.097,0.224,0.2,0.446,0.302,0.668c0.108,0.234,0.216,0.469,0.329,0.701   c0.101,0.205,0.208,0.407,0.313,0.61c0.125,0.242,0.249,0.485,0.38,0.723c0.097,0.177,0.201,0.349,0.301,0.524   c0.148,0.258,0.295,0.516,0.45,0.769c0.069,0.112,0.143,0.221,0.213,0.332c0.694,1.1,1.448,2.157,2.267,3.161   c0.005,0.006,0.01,0.013,0.015,0.019c0.254,0.311,0.516,0.614,0.781,0.915c0.057,0.064,0.111,0.13,0.168,0.194   c0.254,0.283,0.515,0.56,0.779,0.834c0.073,0.075,0.144,0.152,0.217,0.227c0.263,0.268,0.533,0.531,0.806,0.79   c0.077,0.074,0.154,0.148,0.232,0.221c0.277,0.258,0.559,0.51,0.845,0.758c0.077,0.067,0.154,0.135,0.232,0.201   c0.293,0.25,0.592,0.494,0.894,0.734c0.072,0.057,0.145,0.114,0.217,0.171c0.313,0.244,0.631,0.482,0.954,0.714   c0.062,0.044,0.123,0.088,0.185,0.132c0.339,0.24,0.682,0.475,1.03,0.702c0.041,0.027,0.082,0.053,0.123,0.079   c0.372,0.24,0.748,0.474,1.131,0.699c0.007,0.004,0.014,0.008,0.021,0.012c3.696,2.17,7.866,3.62,12.318,4.157   C53.979,225.927,50.133,217.682,50.133,208.533z" fill="#d55a00"/></g><g transform="matrix(0.13774605301766554 -0.04017593110462737 0.04017593110462737 0.13774605301766554 139.45197206469302 75.02204879026223)" id="L1_1"><path d="M343.495,285.792c14.366-9.953,27.601-19.937,39.64-29.792c-12.039-9.855-25.274-19.839-39.64-29.792   C343.827,235.848,344,245.778,344,256S343.827,276.151,343.495,285.792z" fill="none"/><path d="M209.617,424.041c0.199,0.01,0.396,0.03,0.595,0.044c0.333,0.023,0.667,0.043,0.998,0.076   c0.251,0.025,0.499,0.061,0.748,0.092c0.272,0.034,0.546,0.063,0.817,0.104c0.281,0.042,0.557,0.095,0.835,0.144   c0.235,0.042,0.47,0.079,0.703,0.126c0.301,0.06,0.599,0.131,0.897,0.2c0.203,0.047,0.408,0.09,0.61,0.141   c0.321,0.081,0.637,0.171,0.954,0.261c0.174,0.049,0.348,0.095,0.521,0.148c0.336,0.102,0.667,0.213,0.999,0.326   c0.148,0.05,0.297,0.098,0.443,0.15c0.35,0.125,0.696,0.259,1.041,0.395c0.121,0.048,0.244,0.094,0.364,0.144   c0.362,0.148,0.719,0.306,1.074,0.467c0.099,0.045,0.198,0.088,0.297,0.134c0.371,0.173,0.737,0.355,1.101,0.542   c0.077,0.04,0.154,0.078,0.231,0.118c0.379,0.199,0.752,0.406,1.122,0.619c0.057,0.033,0.115,0.065,0.171,0.099   c0.384,0.224,0.761,0.457,1.135,0.697c0.04,0.026,0.08,0.051,0.119,0.076c0.385,0.25,0.764,0.508,1.137,0.773   c0.026,0.019,0.052,0.037,0.079,0.056c0.383,0.274,0.76,0.557,1.13,0.848c0.014,0.011,0.028,0.022,0.043,0.034   c0.379,0.299,0.751,0.605,1.116,0.92c0.005,0.004,0.01,0.009,0.015,0.013C235.698,437.655,240,446.322,240,456   c0,8.855-3.598,16.87-9.411,22.664C238.874,489.933,247.556,496,256,496c22.539,0,46.779-43.186,60.597-113.392   c-18.895-7.104-39.146-15.954-60.597-26.678c-21.452,10.724-41.702,19.574-60.598,26.678c2.98,15.139,6.443,29.022,10.27,41.486   c0.77-0.055,1.544-0.093,2.327-0.093C208.542,424,209.081,424.014,209.617,424.041z" fill="none"/><path d="M300,179.79c8.853,5.111,17.365,10.226,25.548,15.333c-1.437-17.417-3.466-33.872-5.981-49.225   c-14.553,5.498-29.818,11.969-45.621,19.433C282.461,169.864,291.147,174.679,300,179.79z" fill="none"/><path d="M256,337.874c11.775-5.976,23.795-12.474,36-19.521c12.204-7.046,23.842-14.207,34.905-21.417   C327.617,283.751,328,270.092,328,256c0-14.093-0.383-27.751-1.094-40.937c-11.063-7.21-22.701-14.37-34.905-21.417   c-12.205-7.046-24.225-13.544-36-19.521c-11.776,5.977-23.796,12.475-36,19.521c-12.205,7.046-23.842,14.207-34.906,21.417   C184.382,228.249,184,241.907,184,256c0,14.093,0.382,27.751,1.094,40.937c11.063,7.21,22.701,14.37,34.906,21.417   C232.204,325.4,244.224,331.898,256,337.874z M256,208c26.51,0,48,21.49,48,48s-21.49,48-48,48c-26.51,0-48-21.49-48-48   S229.49,208,256,208z" fill="none"/><path d="M392,152c-5.908,0-11.438-1.608-16.188-4.4c-0.005-0.003-0.01-0.006-0.016-0.009   c-0.383-0.225-0.76-0.459-1.132-0.7c-0.041-0.026-0.082-0.052-0.123-0.079c-0.349-0.228-0.693-0.463-1.032-0.704   c-0.061-0.043-0.122-0.086-0.182-0.129c-0.323-0.233-0.642-0.471-0.956-0.716c-0.073-0.056-0.145-0.113-0.217-0.17   c-0.302-0.24-0.601-0.484-0.894-0.734c-0.078-0.066-0.155-0.134-0.232-0.201c-0.286-0.248-0.568-0.5-0.845-0.758   c-0.078-0.073-0.154-0.147-0.232-0.221c-0.273-0.259-0.542-0.521-0.806-0.79c-0.073-0.075-0.144-0.152-0.217-0.227   c-0.264-0.274-0.525-0.551-0.779-0.834c-0.057-0.063-0.111-0.13-0.168-0.194c-0.266-0.302-0.529-0.605-0.783-0.916   c-0.002-0.003-0.005-0.006-0.007-0.009c-0.823-1.009-1.581-2.071-2.278-3.176c-0.069-0.109-0.141-0.216-0.209-0.326   c-0.156-0.254-0.302-0.513-0.451-0.771c-0.1-0.174-0.203-0.347-0.3-0.523c-0.131-0.238-0.255-0.481-0.381-0.723   c-0.105-0.203-0.211-0.405-0.312-0.61c-0.114-0.232-0.221-0.466-0.33-0.701c-0.102-0.222-0.205-0.443-0.302-0.668   c-0.1-0.23-0.194-0.462-0.289-0.694c-0.014-0.034-0.028-0.067-0.042-0.101c-8.603,2.342-17.604,5.106-26.953,8.3   c3.295,19.916,5.756,41.878,7.195,65.818c20.013,13.216,37.803,26.328,53.403,39.14c53.891-47.07,79.171-89.655,67.902-109.175   c-5.363-9.289-19.394-14.019-39.919-13.937C422.862,138.774,408.979,152,392,152z" fill="none"/><path d="M65.617,168.041c0.2,0.01,0.396,0.03,0.595,0.044c0.333,0.023,0.667,0.043,0.997,0.076   c0.251,0.025,0.499,0.061,0.748,0.092c0.272,0.034,0.546,0.063,0.817,0.104c0.28,0.042,0.557,0.095,0.835,0.144   c0.234,0.042,0.47,0.079,0.703,0.126c0.301,0.06,0.599,0.131,0.897,0.2c0.203,0.047,0.408,0.09,0.61,0.141   c0.32,0.08,0.635,0.171,0.951,0.26c0.175,0.05,0.351,0.096,0.525,0.149c0.336,0.102,0.667,0.213,0.998,0.326   c0.147,0.05,0.296,0.098,0.443,0.15c0.349,0.124,0.693,0.258,1.037,0.394c0.123,0.049,0.248,0.095,0.37,0.146   c0.362,0.149,0.719,0.306,1.073,0.467c0.098,0.045,0.197,0.088,0.294,0.133c0.371,0.173,0.737,0.355,1.1,0.542   c0.078,0.04,0.156,0.079,0.233,0.12c0.377,0.198,0.75,0.405,1.118,0.617c0.059,0.034,0.117,0.067,0.176,0.101   c0.382,0.224,0.759,0.456,1.131,0.695c0.041,0.026,0.082,0.052,0.123,0.079c0.384,0.249,0.762,0.507,1.134,0.772   c0.027,0.019,0.053,0.038,0.08,0.057c0.383,0.274,0.759,0.556,1.129,0.847c0.015,0.012,0.03,0.023,0.044,0.035   c0.379,0.298,0.75,0.604,1.115,0.919c0.006,0.005,0.011,0.01,0.017,0.015c0.371,0.321,0.734,0.649,1.09,0.986l0,0l0,0   c6.155,5.832,10,14.077,10,23.226c0,7.434-2.542,14.27-6.795,19.703c7.944,8.261,16.909,16.79,26.85,25.473   c15.6-12.812,33.39-25.924,53.403-39.14c1.439-23.939,3.899-45.902,7.195-65.818C108.944,117.081,59.424,116.48,48.154,136   c-4.611,7.987-3.093,19.841,3.989,34.279C55.811,168.814,59.809,168,64,168C64.542,168,65.081,168.014,65.617,168.041z" fill="none"/><path d="M316.597,129.392C302.779,59.186,278.539,16,256,16c-22.54,0-46.779,43.186-60.598,113.392   c18.895,7.104,39.146,15.954,60.598,26.678C277.452,145.347,297.702,136.496,316.597,129.392z" fill="none"/><path d="M168,256c0-10.222,0.173-20.151,0.505-29.792c-14.365,9.953-27.601,19.937-39.64,29.792   c12.039,9.855,25.274,19.839,39.64,29.792C168.173,276.151,168,266.222,168,256z" fill="none"/><path d="M238.053,165.331c-15.802-7.464-31.067-13.935-45.621-19.433c-2.515,15.353-4.544,31.808-5.981,49.225   c8.183-5.107,16.696-10.222,25.548-15.333C220.853,174.679,229.538,169.864,238.053,165.331z" fill="none"/><path d="M395.944,266.825c-15.6,12.812-33.39,25.924-53.403,39.14c-1.439,23.939-3.899,45.902-7.195,65.818   c67.709,23.136,117.229,23.737,128.499,4.217C475.116,356.48,449.835,313.895,395.944,266.825z" fill="none"/><path d="M186.452,316.877c1.437,17.417,3.466,33.872,5.981,49.225c14.553-5.498,29.818-11.969,45.62-19.433   c-8.514-4.533-17.2-9.348-26.053-14.459C203.147,327.099,194.635,321.984,186.452,316.877z" fill="none"/><path d="M300,332.21c-8.853,5.111-17.539,9.926-26.053,14.459c15.802,7.464,31.067,13.935,45.621,19.433   c2.515-15.353,4.544-31.808,5.981-49.225C317.365,321.984,308.853,327.099,300,332.21z" fill="none"/><path d="M116.056,266.825C62.165,313.895,36.884,356.48,48.154,376c11.27,19.52,60.79,18.919,128.499-4.217   c-3.296-19.916-5.756-41.878-7.195-65.818C149.445,292.749,131.655,279.637,116.056,266.825z" fill="none"/><path d="M408.689,256c62.099-54.576,83.729-102.512,69.014-128c-8.123-14.07-27.717-21.96-56.806-21.759   C422.884,110.409,424,115.074,424,120c0,0.694-0.03,1.38-0.073,2.063c20.525-0.083,34.556,4.647,39.919,13.937   c11.27,19.52-14.011,62.105-67.902,109.175c-15.6-12.812-33.39-25.924-53.403-39.14c-1.439-23.939-3.899-45.902-7.195-65.818   c9.35-3.195,18.35-5.959,26.953-8.3c-0.081-0.202-0.16-0.404-0.237-0.608c-0.087-0.229-0.17-0.46-0.251-0.691   c-0.087-0.247-0.171-0.495-0.252-0.745c-0.074-0.229-0.146-0.458-0.215-0.689c-0.077-0.259-0.151-0.519-0.221-0.78   c-0.062-0.228-0.123-0.455-0.18-0.685c-0.067-0.271-0.129-0.545-0.189-0.819c-0.05-0.225-0.1-0.449-0.144-0.675   c-0.057-0.286-0.105-0.574-0.154-0.863c-0.037-0.219-0.076-0.438-0.109-0.658c-0.045-0.306-0.081-0.615-0.117-0.924   c-0.024-0.207-0.053-0.413-0.073-0.622c-0.034-0.345-0.057-0.694-0.079-1.042c-0.011-0.176-0.028-0.349-0.037-0.526   c-0.026-0.526-0.04-1.056-0.04-1.589c0-1.585,0.12-3.142,0.342-4.665c-8.917,2.336-18.254,5.136-27.998,8.432   C316.13,42.7,285.43,0,256,0c-29.431,0-60.13,42.7-76.344,123.768C101.342,97.276,49.013,102.512,34.297,128   c-7.198,12.468-5.687,30.312,4.989,51.672c3.398-4.126,7.813-7.379,12.857-9.393c-7.082-14.437-8.6-26.292-3.989-34.279   c11.27-19.52,60.79-18.919,128.499,4.217c-3.296,19.916-5.756,41.878-7.195,65.818c-20.013,13.216-37.803,26.328-53.403,39.14   c-9.941-8.683-18.907-17.212-26.85-25.473c-3.442,4.397-8.005,7.868-13.263,9.985c8.041,8.544,17.159,17.338,27.369,26.312   c-62.099,54.576-83.729,102.512-69.014,128c14.715,25.488,67.044,30.724,145.358,4.232c3.016,15.081,6.532,28.838,10.45,41.235   c4.504-3.043,9.827-4.961,15.567-5.374c-3.828-12.463-7.291-26.347-10.27-41.486c18.895-7.104,39.146-15.954,60.598-26.678   c21.452,10.724,41.702,19.574,60.597,26.678C302.779,452.814,278.539,496,256,496c-8.444,0-17.126-6.066-25.411-17.336   c-3.711,3.699-8.328,6.486-13.486,8.015C229.38,503.423,242.817,512,256,512c29.43,0,60.13-42.7,76.344-123.768   c78.313,26.491,130.643,21.255,145.358-4.232C492.418,358.512,470.788,310.576,408.689,256z M383.135,256   c-12.039,9.855-25.274,19.839-39.64,29.792C343.827,276.151,344,266.222,344,256s-0.173-20.151-0.505-29.792   C357.861,236.161,371.096,246.145,383.135,256z M184,256c0-14.093,0.382-27.751,1.094-40.937   c11.063-7.21,22.701-14.37,34.906-21.417c12.204-7.046,24.224-13.544,36-19.521c11.775,5.977,23.795,12.475,36,19.521   c12.204,7.046,23.842,14.207,34.905,21.417C327.617,228.249,328,241.907,328,256c0,14.093-0.383,27.751-1.094,40.937   c-11.063,7.21-22.701,14.37-34.905,21.417c-12.205,7.046-24.225,13.544-36,19.521c-11.776-5.976-23.796-12.474-36-19.521   c-12.205-7.046-23.842-14.207-34.906-21.417C184.382,283.751,184,270.092,184,256z M325.548,195.123   c-8.183-5.107-16.696-10.222-25.548-15.333c-8.853-5.111-17.539-9.926-26.053-14.459c15.802-7.464,31.067-13.935,45.621-19.433   C322.083,161.251,324.111,177.705,325.548,195.123z M256,16c22.539,0,46.779,43.186,60.597,113.392   c-18.895,7.104-39.146,15.954-60.597,26.678c-21.452-10.724-41.702-19.574-60.598-26.678C209.221,59.186,233.46,16,256,16z    M192.432,145.898c14.553,5.498,29.818,11.969,45.621,19.433c-8.515,4.533-17.2,9.348-26.053,14.459   c-8.853,5.111-17.365,10.226-25.548,15.333C187.888,177.705,189.917,161.251,192.432,145.898z M168.505,226.208   C168.173,235.848,168,245.778,168,256s0.173,20.151,0.505,29.792c-14.365-9.953-27.601-19.937-39.64-29.792   C140.903,246.145,154.139,236.161,168.505,226.208z M48.154,376c-11.27-19.52,14.011-62.105,67.902-109.175   c15.6,12.812,33.39,25.924,53.403,39.14c1.439,23.939,3.899,45.902,7.195,65.818C108.944,394.918,59.424,395.519,48.154,376z    M192.432,366.102c-2.515-15.353-4.544-31.808-5.981-49.225c8.183,5.107,16.696,10.222,25.548,15.333   c8.853,5.111,17.538,9.926,26.053,14.459C222.251,354.133,206.986,360.604,192.432,366.102z M273.947,346.669   c8.515-4.533,17.2-9.348,26.053-14.459c8.853-5.111,17.365-10.226,25.548-15.333c-1.437,17.417-3.466,33.872-5.981,49.225   C305.014,360.604,289.749,354.133,273.947,346.669z M463.846,376c-11.27,19.52-60.79,18.919-128.499-4.217   c3.296-19.916,5.756-41.878,7.195-65.818c20.013-13.216,37.803-26.328,53.403-39.14C449.835,313.895,475.116,356.48,463.846,376z" fill="#5c546a"/><circle cx="256" cy="256" r="48" fill="#ffcf00"/><path d="M240,456c0-9.678-4.302-18.345-11.091-24.213c0.371,0.321,0.735,0.65,1.091,0.987   c-1.268-0.153-2.557-0.241-3.866-0.241c-17.673,0-32,14.327-32,32c0,9.149,3.845,17.394,10,23.226   c-4.453-0.537-8.625-1.988-12.323-4.16c4.75,2.792,10.281,4.4,16.189,4.4c3.164,0,6.217-0.466,9.103-1.322   c5.158-1.528,9.775-4.316,13.486-8.015C236.402,472.87,240,464.855,240,456z" fill="#ffedb9"/><path d="M194.133,464.533c0-17.673,14.327-32,32-32c1.31,0,2.598,0.088,3.866,0.241   c-0.356-0.337-0.72-0.666-1.091-0.987c-0.005-0.004-0.01-0.009-0.015-0.013c-0.365-0.315-0.737-0.622-1.116-0.92   c-0.014-0.011-0.029-0.022-0.043-0.034c-0.37-0.291-0.747-0.573-1.13-0.848c-0.026-0.019-0.052-0.037-0.079-0.056   c-0.373-0.266-0.752-0.524-1.137-0.773c-0.04-0.026-0.08-0.051-0.119-0.076c-0.373-0.24-0.751-0.472-1.135-0.697   c-0.057-0.033-0.114-0.066-0.171-0.099c-0.37-0.214-0.743-0.42-1.122-0.619c-0.076-0.04-0.154-0.079-0.231-0.118   c-0.363-0.187-0.73-0.369-1.101-0.542c-0.098-0.046-0.198-0.089-0.297-0.134c-0.355-0.161-0.712-0.319-1.074-0.467   c-0.121-0.05-0.243-0.095-0.364-0.144c-0.344-0.137-0.69-0.271-1.041-0.395c-0.147-0.052-0.296-0.1-0.443-0.15   c-0.331-0.113-0.663-0.224-0.999-0.326c-0.172-0.052-0.347-0.098-0.521-0.148c-0.317-0.09-0.633-0.181-0.954-0.261   c-0.202-0.051-0.406-0.094-0.61-0.141c-0.298-0.069-0.596-0.14-0.897-0.2c-0.233-0.047-0.469-0.084-0.703-0.126   c-0.278-0.049-0.555-0.102-0.835-0.144c-0.27-0.041-0.544-0.07-0.817-0.104c-0.25-0.031-0.497-0.067-0.748-0.092   c-0.33-0.033-0.664-0.053-0.998-0.076c-0.198-0.014-0.395-0.034-0.595-0.044C209.081,424.014,208.542,424,208,424   c-0.784,0-1.558,0.038-2.327,0.093c-5.74,0.413-11.063,2.33-15.567,5.374C181.595,435.218,176,444.955,176,456   c0,0.533,0.014,1.062,0.04,1.589c0.009,0.176,0.026,0.35,0.037,0.525c0.023,0.349,0.045,0.697,0.079,1.042   c0.021,0.208,0.049,0.415,0.073,0.622c0.036,0.309,0.072,0.618,0.117,0.924c0.032,0.221,0.072,0.439,0.109,0.659   c0.049,0.288,0.098,0.577,0.154,0.863c0.045,0.226,0.095,0.451,0.144,0.675c0.06,0.274,0.122,0.548,0.189,0.819   c0.057,0.229,0.118,0.457,0.18,0.685c0.071,0.261,0.144,0.522,0.222,0.78c0.069,0.231,0.141,0.461,0.215,0.689   c0.081,0.25,0.165,0.498,0.252,0.745c0.082,0.232,0.164,0.462,0.251,0.691c0.09,0.238,0.184,0.473,0.279,0.708   c0.094,0.232,0.189,0.465,0.289,0.694c0.097,0.224,0.199,0.444,0.301,0.665c0.109,0.236,0.217,0.472,0.331,0.705   c0.101,0.204,0.206,0.405,0.311,0.607c0.125,0.243,0.25,0.486,0.381,0.725c0.097,0.176,0.2,0.349,0.301,0.523   c0.149,0.258,0.295,0.518,0.451,0.771c0.067,0.11,0.14,0.217,0.209,0.326c0.697,1.105,1.456,2.169,2.279,3.177   c0.002,0.003,0.004,0.005,0.006,0.008c0.255,0.313,0.519,0.617,0.786,0.92c0.055,0.063,0.108,0.127,0.164,0.189   c0.255,0.285,0.518,0.563,0.783,0.838c0.071,0.074,0.141,0.15,0.213,0.223c0.264,0.269,0.534,0.531,0.807,0.791   c0.077,0.073,0.154,0.148,0.231,0.221c0.277,0.258,0.56,0.51,0.846,0.759c0.077,0.067,0.153,0.134,0.231,0.2   c0.294,0.25,0.592,0.495,0.895,0.734c0.072,0.057,0.144,0.114,0.217,0.171c0.314,0.244,0.633,0.483,0.956,0.716   c0.06,0.043,0.12,0.086,0.181,0.128c0.34,0.241,0.684,0.477,1.034,0.705c0.04,0.026,0.08,0.051,0.12,0.077   c0.373,0.241,0.751,0.476,1.135,0.701c0.004,0.003,0.009,0.005,0.013,0.008c3.697,2.172,7.869,3.623,12.323,4.16   C197.979,481.927,194.133,473.682,194.133,464.533z" fill="#ffd586"/><path d="M410.133,96.533c-17.673,0-32,14.327-32,32c0,9.149,3.845,17.394,10,23.226   c-4.453-0.537-8.625-1.987-12.321-4.159c4.75,2.792,10.28,4.4,16.188,4.4c16.979,0,30.862-13.226,31.927-29.937   C423.97,121.38,424,120.694,424,120c0-4.926-1.115-9.591-3.104-13.759c-1.918-4.021-4.654-7.573-7.988-10.454   c0.371,0.321,0.735,0.65,1.092,0.988C412.731,96.621,411.443,96.533,410.133,96.533z" fill="#708aff"/><path d="M360.04,121.589c0.009,0.176,0.025,0.35,0.037,0.526c0.023,0.349,0.046,0.697,0.079,1.042   c0.021,0.208,0.049,0.414,0.073,0.622c0.036,0.309,0.072,0.618,0.117,0.924c0.032,0.221,0.072,0.439,0.109,0.658   c0.049,0.289,0.098,0.577,0.154,0.863c0.044,0.226,0.094,0.451,0.144,0.675c0.06,0.274,0.122,0.548,0.189,0.819   c0.057,0.229,0.118,0.457,0.18,0.685c0.071,0.261,0.144,0.522,0.221,0.78c0.069,0.231,0.141,0.461,0.215,0.689   c0.081,0.25,0.165,0.498,0.252,0.745c0.082,0.231,0.165,0.462,0.251,0.691c0.077,0.204,0.156,0.406,0.237,0.608   c0.014,0.034,0.028,0.067,0.042,0.101c0.094,0.232,0.189,0.464,0.289,0.694c0.097,0.224,0.2,0.446,0.302,0.668   c0.108,0.235,0.216,0.47,0.33,0.701c0.101,0.205,0.207,0.407,0.312,0.61c0.125,0.242,0.249,0.485,0.381,0.723   c0.097,0.176,0.2,0.349,0.3,0.523c0.149,0.258,0.295,0.518,0.451,0.771c0.068,0.11,0.14,0.217,0.209,0.326   c0.697,1.105,1.455,2.168,2.278,3.176c0.002,0.003,0.005,0.006,0.007,0.009c0.254,0.311,0.517,0.615,0.783,0.916   c0.056,0.064,0.111,0.13,0.168,0.194c0.254,0.284,0.515,0.56,0.779,0.834c0.073,0.075,0.143,0.153,0.217,0.227   c0.263,0.268,0.533,0.531,0.806,0.79c0.077,0.074,0.154,0.148,0.232,0.221c0.277,0.258,0.559,0.51,0.845,0.758   c0.077,0.067,0.154,0.135,0.232,0.201c0.293,0.25,0.592,0.494,0.894,0.734c0.072,0.057,0.145,0.114,0.217,0.17   c0.314,0.244,0.632,0.483,0.956,0.716c0.06,0.043,0.121,0.086,0.182,0.129c0.339,0.241,0.683,0.476,1.032,0.704   c0.041,0.027,0.082,0.052,0.123,0.079c0.372,0.24,0.749,0.475,1.132,0.7c0.005,0.003,0.011,0.006,0.016,0.009   c3.697,2.171,7.868,3.622,12.321,4.159c-6.155-5.832-10-14.077-10-23.226c0-17.673,14.327-32,32-32c1.31,0,2.598,0.088,3.866,0.241   c-0.356-0.338-0.72-0.667-1.092-0.988c-0.005-0.004-0.009-0.008-0.014-0.012c-0.365-0.316-0.738-0.623-1.118-0.922   c-0.013-0.01-0.027-0.021-0.04-0.032c-0.371-0.291-0.749-0.574-1.132-0.849c-0.025-0.018-0.051-0.036-0.077-0.055   c-0.373-0.266-0.752-0.524-1.137-0.774c-0.04-0.026-0.079-0.051-0.119-0.076c-0.373-0.24-0.751-0.473-1.135-0.697   c-0.056-0.033-0.114-0.065-0.17-0.098c-0.37-0.214-0.744-0.421-1.123-0.62c-0.076-0.04-0.153-0.078-0.229-0.117   c-0.364-0.187-0.73-0.369-1.102-0.542c-0.098-0.046-0.198-0.089-0.297-0.134c-0.355-0.161-0.712-0.319-1.073-0.467   c-0.121-0.05-0.244-0.096-0.365-0.144c-0.344-0.137-0.69-0.27-1.04-0.395c-0.146-0.052-0.294-0.099-0.441-0.149   c-0.332-0.113-0.664-0.224-1-0.326c-0.172-0.052-0.346-0.098-0.519-0.147c-0.317-0.09-0.634-0.181-0.955-0.262   c-0.202-0.051-0.406-0.094-0.61-0.141c-0.298-0.069-0.596-0.14-0.897-0.2c-0.233-0.047-0.469-0.084-0.703-0.126   c-0.278-0.049-0.554-0.102-0.835-0.144c-0.271-0.041-0.544-0.07-0.817-0.104c-0.249-0.031-0.497-0.067-0.748-0.092   c-0.33-0.033-0.664-0.053-0.997-0.076c-0.198-0.014-0.396-0.034-0.595-0.044C393.081,88.014,392.542,88,392,88   c-16.088,0-29.399,11.874-31.658,27.335C360.12,116.858,360,118.415,360,120C360,120.533,360.014,121.062,360.04,121.589z" fill="#3d6edd"/><path d="M89.205,219.702C93.458,214.27,96,207.434,96,200c0-9.149-3.845-17.394-10-23.226   c-1.268-0.153-2.557-0.241-3.866-0.241c-17.673,0-32,14.327-32,32c0,9.148,3.845,17.394,10,23.226   c-4.452-0.536-8.622-1.986-12.318-4.157C52.565,230.393,58.094,232,64,232c4.223,0,8.251-0.826,11.942-2.312   C81.2,227.57,85.764,224.099,89.205,219.702z" fill="#ff7400"/><path d="M50.133,208.533c0-17.673,14.327-32,32-32c1.31,0,2.598,0.088,3.866,0.241l0,0l0,0   c-0.355-0.337-0.719-0.666-1.09-0.986c-0.005-0.005-0.011-0.01-0.017-0.015c-0.364-0.314-0.736-0.621-1.115-0.919   c-0.015-0.011-0.03-0.023-0.044-0.035c-0.37-0.29-0.746-0.573-1.129-0.847c-0.027-0.019-0.053-0.038-0.08-0.057   c-0.372-0.265-0.75-0.522-1.134-0.772c-0.041-0.027-0.082-0.052-0.123-0.079c-0.372-0.239-0.749-0.471-1.131-0.695   c-0.058-0.034-0.117-0.067-0.176-0.101c-0.368-0.213-0.741-0.419-1.118-0.617c-0.077-0.041-0.156-0.08-0.233-0.12   c-0.363-0.187-0.729-0.369-1.1-0.542c-0.098-0.046-0.197-0.088-0.294-0.133c-0.355-0.161-0.712-0.318-1.073-0.467   c-0.123-0.05-0.247-0.097-0.37-0.146c-0.343-0.136-0.688-0.269-1.037-0.394c-0.146-0.052-0.295-0.1-0.443-0.15   c-0.331-0.113-0.662-0.224-0.998-0.326c-0.174-0.053-0.35-0.099-0.525-0.149c-0.316-0.09-0.631-0.18-0.951-0.26   c-0.202-0.051-0.407-0.094-0.61-0.141c-0.298-0.069-0.596-0.14-0.897-0.2c-0.233-0.047-0.469-0.084-0.703-0.126   c-0.278-0.049-0.555-0.102-0.835-0.144c-0.271-0.041-0.544-0.07-0.817-0.104c-0.25-0.031-0.497-0.067-0.748-0.092   c-0.33-0.033-0.664-0.053-0.997-0.076c-0.199-0.014-0.396-0.034-0.595-0.044C65.081,168.014,64.542,168,64,168   c-4.191,0-8.189,0.814-11.857,2.279c-5.044,2.014-9.459,5.267-12.857,9.393C34.734,185.199,32,192.28,32,200   c0,0.533,0.014,1.062,0.04,1.589c0.009,0.176,0.026,0.35,0.037,0.526c0.023,0.349,0.045,0.697,0.079,1.042   c0.02,0.208,0.049,0.414,0.073,0.622c0.037,0.309,0.072,0.618,0.118,0.924c0.032,0.221,0.072,0.439,0.109,0.659   c0.049,0.288,0.098,0.577,0.154,0.863c0.045,0.226,0.095,0.451,0.144,0.675c0.06,0.274,0.122,0.548,0.189,0.819   c0.057,0.23,0.118,0.457,0.18,0.685c0.071,0.261,0.144,0.522,0.222,0.78c0.069,0.231,0.141,0.461,0.215,0.689   c0.081,0.25,0.165,0.498,0.252,0.745c0.082,0.232,0.165,0.462,0.251,0.692c0.09,0.238,0.184,0.473,0.279,0.708   c0.094,0.232,0.189,0.464,0.289,0.694c0.097,0.224,0.2,0.446,0.302,0.668c0.108,0.234,0.216,0.469,0.329,0.701   c0.101,0.205,0.208,0.407,0.313,0.61c0.125,0.242,0.249,0.485,0.38,0.723c0.097,0.177,0.201,0.349,0.301,0.524   c0.148,0.258,0.295,0.516,0.45,0.769c0.069,0.112,0.143,0.221,0.213,0.332c0.694,1.1,1.448,2.157,2.267,3.161   c0.005,0.006,0.01,0.013,0.015,0.019c0.254,0.311,0.516,0.614,0.781,0.915c0.057,0.064,0.111,0.13,0.168,0.194   c0.254,0.283,0.515,0.56,0.779,0.834c0.073,0.075,0.144,0.152,0.217,0.227c0.263,0.268,0.533,0.531,0.806,0.79   c0.077,0.074,0.154,0.148,0.232,0.221c0.277,0.258,0.559,0.51,0.845,0.758c0.077,0.067,0.154,0.135,0.232,0.201   c0.293,0.25,0.592,0.494,0.894,0.734c0.072,0.057,0.145,0.114,0.217,0.171c0.313,0.244,0.631,0.482,0.954,0.714   c0.062,0.044,0.123,0.088,0.185,0.132c0.339,0.24,0.682,0.475,1.03,0.702c0.041,0.027,0.082,0.053,0.123,0.079   c0.372,0.24,0.748,0.474,1.131,0.699c0.007,0.004,0.014,0.008,0.021,0.012c3.696,2.17,7.866,3.62,12.318,4.157   C53.979,225.927,50.133,217.682,50.133,208.533z" fill="#d55a00"/></g></defs><g fi:class="KUsePattern"><pattern id="pattern_L1_0" width="350" height="350" patternUnits="userSpaceOnUse"><use xlink:href="#L1_0" x="-350" y="-350"/><use xlink:href="#L1_0" x="0" y="-350"/><use xlink:href="#L1_0" x="350" y="-350"/><use xlink:href="#L1_0" x="-350" y="0"/><use xlink:href="#L1_0" x="0" y="0"/><use xlink:href="#L1_0" x="350" y="0"/><use xlink:href="#L1_0" x="-350" y="350"/><use xlink:href="#L1_0" x="0" y="350"/><use xlink:href="#L1_0" x="350" y="350"/></pattern><rect x="0" y="0" width="100%" height="100%" fill="url(#pattern_L1_0)"/></g><g fi:class="KUsePattern"><pattern id="pattern_L1_1" width="350" height="350" patternUnits="userSpaceOnUse"><use xlink:href="#L1_1" x="-350" y="-350"/><use xlink:href="#L1_1" x="0" y="-350"/><use xlink:href="#L1_1" x="350" y="-350"/><use xlink:href="#L1_1" x="-350" y="0"/><use xlink:href="#L1_1" x="0" y="0"/><use xlink:href="#L1_1" x="350" y="0"/><use xlink:href="#L1_1" x="-350" y="350"/><use xlink:href="#L1_1" x="0" y="350"/><use xlink:href="#L1_1" x="350" y="350"/></pattern><rect x="0" y="0" width="100%" height="100%" fill="url(#pattern_L1_1)"/></g></svg>