<svg id="Capa_1" enable-background="new 0 0 512 512" height="512" viewBox="0 0 512 512" width="512" xmlns="http://www.w3.org/2000/svg" xmlns:xlink="http://www.w3.org/1999/xlink"><linearGradient id="SVGID_1_" gradientUnits="userSpaceOnUse" x1="0" x2="512" y1="256" y2="256"><stop offset="0" stop-color="#80d8ff"/><stop offset="1" stop-color="#ea80fc"/></linearGradient><path d="m491.527 392.517-219.927-219.928c12.046-46.577-.847-97.026-36.029-132.209-41.029-41.028-103.858-52.008-156.349-27.324-12.543 5.898-15.41 22.467-5.632 32.245l58.728 58.728-28.289 28.289-58.727-58.728c-9.8-9.801-26.361-6.882-32.245 5.632-24.685 52.489-13.704 115.32 27.323 156.348 35.153 35.153 85.597 48.086 132.209 36.029l219.928 219.928c27.297 27.296 71.712 27.298 99.01 0 27.297-27.297 27.297-71.712 0-99.01zm-28.288 70.722c-11.699 11.698-30.734 11.698-42.433 0l-228.443-228.443c-5.426-5.426-13.576-7.335-20.951-4.665-35.638 12.896-75.966 3.928-102.743-22.85-21.758-21.759-31.619-52.15-27.92-81.668l49.136 49.137c7.806 7.806 20.477 7.811 28.288 0l56.577-56.578c7.806-7.806 7.811-20.477 0-28.288l-49.136-49.137c29.518-3.701 59.91 6.162 81.668 27.92 26.778 26.778 35.747 67.107 22.849 102.743-2.641 7.297-.823 15.464 4.665 20.951l228.443 228.443c11.699 11.701 11.699 30.736 0 42.435z" fill="url(#SVGID_1_)"/></svg>