<svg id="Layer_35" enable-background="new 0 0 64 64" height="512" viewBox="0 0 64 64" width="512" xmlns="http://www.w3.org/2000/svg" xmlns:xlink="http://www.w3.org/1999/xlink"><linearGradient id="SVGID_1_" gradientUnits="userSpaceOnUse" x1="32" x2="32" y1="63" y2="1"><stop offset="0" stop-color="#9f2fff"/><stop offset="1" stop-color="#0bb1d3"/></linearGradient><path d="m49.123 47.288-10.259-4.197c-1.133-.463-1.864-1.553-1.864-2.777v-.718c3.077-2.126 5.427-5.126 6.759-8.596h.241c2.757 0 5-2.243 5-5 0-.624-.129-1.216-.339-1.768l.426-.412c.943-.889 1.544-2.041 1.688-2.332 1.271-2.01 1.57-4.439.819-6.677-.69-2.061-2.199-3.743-4.185-4.693-.323-2.129-1.507-4.038-3.31-5.307-1.803-1.27-4.04-1.771-6.22-1.4-1.544-1.539-3.654-2.411-5.879-2.411s-4.335.872-5.88 2.411c-2.178-.367-4.416.131-6.219 1.4-1.804 1.269-2.987 3.178-3.311 5.307-1.985.95-3.494 2.633-4.185 4.692-.751 2.238-.451 4.668.819 6.678.141.286.722 1.401 1.635 2.282l.506.373c-.23.576-.365 1.2-.365 1.857 0 2.757 2.243 5 5 5h.241c1.332 3.471 3.682 6.47 6.759 8.596v.718c0 1.224-.731 2.313-1.864 2.776l-10.259 4.197c-6 2.455-9.877 8.231-9.877 14.713v1h54v-1c0-6.482-3.877-12.258-9.877-14.712zm-8.209 3.276-4.065 3.049 2.694-8.083.569.233zm-17.027-4.801.569-.233 2.694 8.083-4.065-3.049zm3.366 8.159 2.36 7.078h-.199l-4.127-4.127zm-.953-9.182c.223-.116.435-.246.635-.391l5.065 5.065 5.065-5.065c.2.145.411.275.635.391l-5.42 16.26h-.56zm10.447 9.182 1.966 2.951-4.127 4.127h-.199zm6.06-27.072c-.072.471-.167.945-.291 1.445-.382.45-.926.705-1.516.705h-4.146c-.763 0-1.448-.424-1.789-1.105l-.447-.895h-5.236l-.447.895c-.341.681-1.027 1.105-1.789 1.105h-4.146c-.59 0-1.134-.255-1.516-.705-.124-.5-.219-.975-.291-1.445h-.002c-.124-.818-.191-1.653-.191-2.499v-2.351h22v2.351c0 .847-.067 1.681-.192 2.499zm.193-6.85h-6.586l2.741-2.741 3.845 2.307zm-22 0v-.434l3.845-2.308 2.741 2.742zm7.333 0 3.667-2.75 3.667 2.75zm16.081 8.958c.059-.23.109-.464.159-.697.037-.171.071-.341.102-.51.206-1.108.325-2.242.325-3.4v-1.166c1.161.414 2 1.514 2 2.816 0 1.512-1.129 2.753-2.586 2.957zm-28.212-6.673c-.731-.728-1.19-1.697-1.194-1.705l-.066-.121c-.969-1.506-1.202-3.333-.639-5.013.565-1.688 1.871-3.041 3.582-3.712l.587-.229.045-.629c.129-1.771 1.053-3.386 2.536-4.43 1.493-1.051 3.384-1.407 5.182-.972l.592.142.398-.459c1.188-1.371 2.928-2.157 4.775-2.157s3.587.786 4.775 2.157l.398.459.592-.142c1.797-.436 3.688-.079 5.183.972 1.482 1.044 2.406 2.658 2.535 4.43l.045.629.587.229c1.711.671 3.017 2.024 3.582 3.713.563 1.679.33 3.506-.639 5.012l-.066.121c-.005.01-.501 1.055-1.286 1.795l-.138.133c-.686-.701-1.572-1.204-2.569-1.407v-2.667l-6.155-3.692-2.938 2.938-3.906-2.93-3.906 2.93-2.938-2.938-6.156 3.692v2.667c-.981.2-1.858.688-2.54 1.372zm.798 3.715c0-1.302.839-2.402 2-2.816v1.166c0 1.157.119 2.292.324 3.399.032.169.065.34.103.512.05.233.1.466.159.696-1.457-.203-2.586-1.444-2.586-2.957zm5.376 4.944c.205.033.413.056.624.056h4.146c1.445 0 2.752-.761 3.465-2h2.779c.713 1.239 2.02 2 3.465 2h4.145c.211 0 .419-.023.624-.056-1.789 4.12-5.212 7.43-9.624 8.998-4.412-1.568-7.836-4.878-9.624-8.998zm9.308 11.004.316.106.316-.105c.947-.316 1.855-.702 2.719-1.152.072.748.306 1.452.678 2.076l-3.713 3.713-3.714-3.714c.372-.624.606-1.328.678-2.076.864.45 1.773.837 2.72 1.152zm-16.049 7.192 6.076-2.486-.797 4.782 3.729 2.797-1.931 2.895 3.874 3.872h-9.586v-6h-2v6h-7.965c.373-5.255 3.665-9.842 8.6-11.86zm33.365 11.86v-6h-2v6h-9.586l3.873-3.873-1.931-2.895 3.729-2.797-.797-4.782 6.076 2.486c4.935 2.019 8.227 6.605 8.6 11.86h-7.964zm-17-25c-2.206 0-4-1.794-4-4h2c0 1.103.897 2 2 2s2-.897 2-2h2c0 2.206-1.794 4-4 4z" fill="url(#SVGID_1_)"/></svg>